<svg xmlns="http://www.w3.org/2000/svg" viewBox="0 0 88.32 45.6"><defs><style>.cls-1{fill:#fff;}.cls-2{fill:#536876;}</style></defs><g id="Layer_2" data-name="Layer 2"><g id="Layer_1-2" data-name="Layer 1"><path class="cls-1" d="M10.8,0,11,0a17.42,17.42,0,0,1,3,.32,8.69,8.69,0,0,1,1.86.57,3.6,3.6,0,0,1,.39.2.31.31,0,0,1,.16.4c-.26,1.09-.51,2.18-.77,3.26,0,.07,0,.13,0,.19a.34.34,0,0,1-.46.28L14.21,5a9.39,9.39,0,0,0-2-.3c-.63,0-1.27,0-1.9,0A6.21,6.21,0,0,0,8.2,5a4.28,4.28,0,0,0-2.31,2.1c-1.35,2.75-1.38,8.1.53,10.59A3.9,3.9,0,0,0,8.9,19.16a6.56,6.56,0,0,0,1.4.1,12.91,12.91,0,0,0,1.76-.13c.14,0,.28-.06.42-.09V14.53H9.57a.35.35,0,0,1-.32-.34V10.55a.34.34,0,0,1,.29-.33H17a.36.36,0,0,1,.4.41V21.83a.37.37,0,0,1-.2.36,10.5,10.5,0,0,1-2.4,1.06,14,14,0,0,1-5,.59,18.74,18.74,0,0,1-2.24-.26A8.77,8.77,0,0,1,.31,15.87C-.53,10.37,0,2.49,6.25.54A11,11,0,0,1,8.65.07l.66,0,.15,0Z"/><path class="cls-1" d="M88.32,15.81c0,3.1-.73,7.36-4.43,7.89a8.88,8.88,0,0,1-4.84-.49,6.13,6.13,0,0,1-1.6-.93l-.07-.05c0,.19-.06.36-.08.53s0,.24-.07.36a.34.34,0,0,1-.36.28H74a.33.33,0,0,1-.36-.36c0-.26,0-.51,0-.76V11.67c0-3.44,0-6.88,0-10.32,0-.33.12-.49.48-.48,1.31,0,2.62,0,3.92,0h.08a.36.36,0,0,1,.4.4V8.59l.13-.06a8,8,0,0,1,4-1A5.93,5.93,0,0,1,84.9,8a4.67,4.67,0,0,1,2.4,2.19A11.6,11.6,0,0,1,88.32,15.81Zm-9.89-3.55v.14c0,2.2,0,4.41,0,6.61a.24.24,0,0,0,.15.25,5.12,5.12,0,0,0,3.12.57,1.66,1.66,0,0,0,1.42-1.1c.52-1.44.64-4.92-.2-6.22a1.92,1.92,0,0,0-1.46-.94,4.53,4.53,0,0,0-1.9.2A4.83,4.83,0,0,0,78.43,12.26Z"/><path class="cls-1" d="M43.88,9.28h6.51a1.77,1.77,0,0,0,0-.23V1.18a.32.32,0,0,1,.31-.3h.18c1.29,0,2.59,0,3.88,0,.35,0,.49.12.49.49V22.94a1.09,1.09,0,0,1,0,.18.33.33,0,0,1-.29.28.86.86,0,0,1-.16,0H50.72a.33.33,0,0,1-.33-.29,1.69,1.69,0,0,1,0-.23c0-2.93,0-5.87,0-8.8v-.33c-.14,0-6.31-.05-6.52,0v9.13a1.21,1.21,0,0,1,0,.19.32.32,0,0,1-.33.34h-4.2a.32.32,0,0,1-.31-.29.82.82,0,0,1,0-.22V1.34a.91.91,0,0,1,0-.17.32.32,0,0,1,.31-.29h.17c1.3,0,2.6,0,3.89,0,.34,0,.49.11.49.49,0,2.56,0,5.12,0,7.68Z"/><path class="cls-1" d="M68,22.36a9.55,9.55,0,0,1-7.42,1.21c-2.24-.49-3.31-2.66-3.27-4.81,0-1.28,0-2.57,0-3.86V8.51c0-.34.12-.46.46-.46h4c.3,0,.47.13.47.46v9.11c0,.33,0,.66.07,1,.33,2,3.07,1.32,4.28.58.13-.07.09-.21.1-.33V8.46a.36.36,0,0,1,.41-.41h4c.3,0,.43.13.43.44V23.05a.35.35,0,0,1-.37.36H68.56a.4.4,0,0,1-.42-.27c0-.2-.07-.4-.1-.61Q68,22.46,68,22.36Z"/><path class="cls-1" d="M28.68,12.07h-.21c-.63,0-1.26,0-1.89,0a.38.38,0,0,1-.43-.43V9.13c0-.27.08-.38.34-.44l2-.5.15,0V3.92c0-.2.07-.26.27-.27h4.12c.37,0,.4,0,.4.42,0,1.25,0,2.51,0,3.76V8h3.15a.33.33,0,0,1,.32.33v3.41a.33.33,0,0,1-.32.31H33.49c0,.07,0,.12,0,.17v6a1.45,1.45,0,0,0,1,1.49,3.21,3.21,0,0,0,1.41.16l.74-.05c.29,0,.42.12.42.4V23a.35.35,0,0,1-.3.41,9.13,9.13,0,0,1-3,.36c-3.34-.07-5.13-2-5-5.35V12.07Z"/><path class="cls-1" d="M24.6,15.65v7a2.11,2.11,0,0,1,0,.35.37.37,0,0,1-.35.34H20.4a1.63,1.63,0,0,1-.31,0,.44.44,0,0,1-.35-.4,1.48,1.48,0,0,1,0-.21V8.54a.81.81,0,0,1,0-.16A.39.39,0,0,1,20.09,8H24.3a.32.32,0,0,1,.29.3,1.77,1.77,0,0,1,0,.23v7.09Z"/><path class="cls-1" d="M19.52,4.09a2.69,2.69,0,1,1,2.7,2.71A2.69,2.69,0,0,1,19.52,4.09Z"/><path class="cls-2" d="M4.11,35.25C3,34.68,2.69,34.37,2.69,33.7s.29-1,.92-1c.85,0,1,.69,1,1.29v.35H6.67v-.24c0-1.65-.72-3.12-3-3.12a2.74,2.74,0,0,0-3,2.93c0,1.52.66,2.33,2.57,3.25,1.27.67,1.56,1.12,1.56,1.9S4.4,40.2,3.67,40.2s-1.16-.68-1.17-1.44V38.5H.38v.25a2.88,2.88,0,0,0,3.21,3.16c2.14,0,3.27-1.1,3.27-3.14C6.86,37,6.1,36.25,4.11,35.25Zm7.4-4.3C9.39,31,8,32.3,8,35.23v2.31c0,3,1.17,4.38,3.42,4.38s3.47-1.43,3.47-4.42V35.25C14.89,32.43,13.68,31,11.51,31Zm1.24,6.61c0,1.67-.36,2.53-1.28,2.53s-1.34-.93-1.34-2.52V35.21c0-1.62.4-2.42,1.32-2.42s1.3.85,1.3,2.42Zm6.8-6.62c-2.62,0-3.36,2.09-3.36,4.34v2c0,2.62.59,4.6,3.25,4.6,2.88,0,3.23-2.2,3.25-3.6v-.08H20.61v.25c0,.8-.17,1.65-1.11,1.65s-1.17-1-1.17-2.49v-2.5c0-1.55.3-2.41,1.19-2.41s1,.91,1,1.56v.23h2.13V34.3C22.68,33.29,22.47,30.94,19.55,30.94Zm4.63-1.37H26.3V27.26H24.18Zm0,12.17h2.13V31.12H24.16Zm10.08-7.87c0-1.83-.9-2.92-3-2.92-2.5,0-3.15,1.48-3.17,3v.09h2.05V34c0-.69.17-1.31,1-1.31s1,.62,1,1.39v1.32h-.57c-2.28,0-3.87,1-3.87,3.38v.1c0,1.56.7,3.09,2.49,3.09a2.1,2.1,0,0,0,2.05-1.07,8.49,8.49,0,0,0,.12.9H34.3c0-.42-.06-1.55-.06-2.17Zm-2.06,3.94c0,1.57-.29,2.3-1.3,2.3-.81,0-1.12-.66-1.12-1.41v-.09c0-1.16.61-1.69,1.83-1.69a5.43,5.43,0,0,1,.59,0Zm4.08,3.93h2.13V27.26H36.26Zm10.33-10.8c-2.61,0-3.36,2.09-3.36,4.34v2c0,2.62.59,4.6,3.25,4.6,2.88,0,3.23-2.2,3.25-3.6v-.08H47.65v.25c0,.8-.17,1.65-1.11,1.65s-1.17-1-1.17-2.49v-2.5c0-1.55.3-2.41,1.19-2.41s1,.91,1,1.56v.23h2.12V34.3C49.72,33.29,49.51,30.94,46.59,30.94Zm7.84,0c-2.11,0-3.51,1.35-3.51,4.28v2.31c0,3,1.18,4.38,3.43,4.38s3.47-1.43,3.47-4.42V35.25C57.82,32.43,56.61,31,54.43,31Zm1.25,6.61c0,1.67-.36,2.53-1.29,2.53s-1.33-.93-1.33-2.52V35.21c0-1.62.4-2.42,1.32-2.42s1.3.85,1.3,2.42ZM66,27.26H63.84v4.51A1.89,1.89,0,0,0,62,31c-2,0-2.93,1.7-2.93,4.2v2.28c0,2.76.62,4.48,2.66,4.48a2,2,0,0,0,2.1-1.26A10,10,0,0,0,64,41.74h2c0-.6,0-1.51,0-2.91Zm-2.09,10c0,1.89-.25,2.82-1.35,2.82-.91,0-1.27-.78-1.27-2.52v-2.3c0-1.72.44-2.41,1.33-2.41,1.12,0,1.29.82,1.29,2.62ZM68,29.57H70.1V27.26H68Zm0,12.17h2.13V31.12H68Zm8.38-10.8a2.23,2.23,0,0,0-2.15,1.24,9.7,9.7,0,0,0-.07-1.06h-2c0,.52,0,1.12,0,3.28v7.34h2.13v-6.8c0-1.63.41-2.12,1.3-2.12s1.1.51,1.1,1.54v7.38h2.13V33.92C78.75,31.84,77.79,30.94,76.33,30.94Zm9,.18a7.49,7.49,0,0,0-.1,1C85,31.54,84.56,31,83.31,31c-2,0-3,1.8-3,4.31v2.21c0,2.46.7,4.13,2.74,4.13a2,2,0,0,0,2-1.15v.91c0,1.62-.22,2.49-1.36,2.49a1.09,1.09,0,0,1-1.21-1.13v0H80.4v0c0,1.21.55,2.88,3.24,2.88,3.06,0,3.57-1.9,3.57-4.52V34c0-1.3,0-2.27,0-2.91ZM85.12,37c0,1.78-.23,2.79-1.35,2.79-.86,0-1.26-.76-1.26-2.4V35.29c0-1.69.47-2.47,1.37-2.47,1.12,0,1.24,1,1.24,2.46Z"/></g></g></svg>