<?xml version="1.0" encoding="utf-8"?>
<!-- Generator: Adobe Illustrator 25.3.1, SVG Export Plug-In . SVG Version: 6.00 Build 0)  -->
<svg version="1.1" id="Layer_1" xmlns="http://www.w3.org/2000/svg" xmlns:xlink="http://www.w3.org/1999/xlink" x="0px" y="0px"
	 viewBox="0 0 414.8 287.3" style="enable-background:new 0 0 414.8 287.3;" xml:space="preserve">
<style type="text/css">
	.st0{fill:#004B85;}
	.st1{fill:#ED174C;}
</style>
<g>
	<g>
		<path class="st0" d="M87.5,77.5h31.3c16.4,0,29.6,9.3,29.6,28.5c0,19-12,28.7-30.9,28.7H107v37H87.5V77.5z M107,119.5h8.5
			c9,0,13.3-4.1,13.3-13.4c0-9.1-5-13-12.6-13H107V119.5z"/>
		<path class="st0" d="M154,99.5h19.2v72.3H154V99.5z M154.1,72.5h19.2v17.2h-19.2V72.5z"/>
		<path class="st0" d="M197.5,99.5c5.1,11.4,8,17.8,9.7,21.6h0.2c2.1-4.8,5.6-12.1,9.9-21.6h20.2l-19.3,33.9l19.2,38.4H216
			c-5.1-11.9-7.8-18.7-9.5-22.7h-0.2c-1.5,3.7-5.8,13.7-9.8,22.7h-20.3l18.7-35.7l-18.5-36.6H197.5z"/>
		<path class="st0" d="M253.7,140.5c0,8.1,1.4,17.3,10.4,17.3c7.5,0,8.9-5.7,9.4-8.4h18.4c-1.3,5.5-4.9,23.7-28.2,23.7
			c-23.8,0-29.1-18.4-29.1-37.9c0-21.6,9-37.1,29.6-37.1c22.4,0,28.4,16.1,28.4,35.2c0,2.3-0.1,5.9-0.3,7.1H253.7z M253.9,127.4
			h19.8c-0.1-6.3-1.2-14.2-9.7-14.2C255.1,113.2,254,121.8,253.9,127.4L253.9,127.4z"/>
		<path class="st0" d="M299.2,171.8V72.5h19.2v99.3H299.2z"/>
	</g>
</g>
<g>
	<g>
		<path class="st1" d="M186.8,211.4c0,1,0.1,2.9,0.2,3.7h-3.2c-0.1-0.4-0.2-1.3-0.2-1.9c-0.7,1.3-2,2.2-4.2,2.2
			c-3.5,0-4.8-2.6-4.8-5c0-3.2,2.2-5.5,7-5.5c0.7,0,1.2,0,1.7,0V203c0-1.2-0.2-2.5-2.3-2.5c-2,0-2.3,1.2-2.4,2.5h-3.4
			c0.1-2.5,1.4-5.1,5.9-5.1c3.6,0,5.6,1.6,5.6,5V211.4z M183.5,207.4c-0.5,0-1-0.1-1.7-0.1c-2.8,0-3.6,1.2-3.6,2.7
			c0,1.3,0.7,2.5,2.3,2.5c2.4,0,3-1.7,3-4.6V207.4z"/>
		<path class="st1" d="M189.6,203.2c0-3.2,0-4.4,0-5.1h3.4c0.1,0.4,0.1,1.3,0.1,2c0.8-1.4,2.1-2.3,4-2.3c2,0,3.2,0.9,3.7,2.5
			c0.7-1.3,2.1-2.5,4.4-2.5c2.4,0,4.5,1.2,4.5,5.3v12h-3.5v-11.4c0-1.5-0.5-2.8-2.2-2.8c-1.9,0-2.6,1.5-2.6,3.8v10.4H198v-11.4
			c0-1.7-0.6-2.8-2.2-2.8c-1.8,0-2.7,1.4-2.7,4v10.3h-3.5V203.2z"/>
		<path class="st1" d="M212.5,191.4h3.5v8.6c0.6-1.2,1.8-2.2,4.1-2.2c3.6,0,5.4,3.1,5.4,8.3c0,5.3-1.6,9.2-5.9,9.2
			c-2.3,0-3.2-1.1-3.7-2.1c0,0.5,0,1.2-0.1,1.8h-3.4c0-1.1,0-3,0-4.8V191.4z M222,206.2c0-3.5-0.8-5.4-3-5.4c-2.4,0-3.2,1.8-3.2,5.8
			c0,3.9,0.7,5.8,3,5.8C221.1,212.4,222,210.3,222,206.2z"/>
		<path class="st1" d="M238.7,211.4c0,1,0.1,2.9,0.2,3.7h-3.2c-0.1-0.4-0.2-1.3-0.2-1.9c-0.7,1.3-2,2.2-4.2,2.2
			c-3.5,0-4.8-2.6-4.8-5c0-3.2,2.2-5.5,7-5.5c0.7,0,1.2,0,1.7,0V203c0-1.2-0.2-2.5-2.3-2.5c-2,0-2.3,1.2-2.4,2.5h-3.4
			c0.1-2.5,1.4-5.1,5.9-5.1c3.6,0,5.6,1.6,5.6,5V211.4z M235.3,207.4c-0.5,0-1-0.1-1.7-0.1c-2.8,0-3.6,1.2-3.6,2.7
			c0,1.3,0.7,2.5,2.3,2.5c2.4,0,3-1.7,3-4.6V207.4z"/>
		<path class="st1" d="M243.5,210c0.1,1.5,0.9,2.7,2.7,2.7c1.6,0,2.4-0.8,2.4-2.1c0-1.4-0.8-2-3-2.8c-4-1.4-5-2.8-5-5.2
			c0-2.3,1.4-4.8,5.5-4.8c4.3,0,5.5,2.7,5.6,5.1h-3.4c-0.1-0.8-0.3-2.4-2.3-2.4c-1.3,0-2,0.7-2,1.8c0,1.1,0.6,1.7,2.9,2.4
			c3.8,1.3,5.2,2.7,5.2,5.4c0,3.3-2.2,5.2-6,5.2c-3.9,0-5.9-2.2-6-5.4H243.5z"/>
		<path class="st1" d="M256.2,210c0.1,1.5,0.9,2.7,2.7,2.7c1.6,0,2.4-0.8,2.4-2.1c0-1.4-0.8-2-3-2.8c-4-1.4-5-2.8-5-5.2
			c0-2.3,1.4-4.8,5.5-4.8c4.3,0,5.5,2.7,5.6,5.1H261c-0.1-0.8-0.3-2.4-2.3-2.4c-1.3,0-2,0.7-2,1.8c0,1.1,0.6,1.7,2.9,2.4
			c3.8,1.3,5.2,2.7,5.2,5.4c0,3.3-2.2,5.2-6,5.2c-3.9,0-5.9-2.2-6-5.4H256.2z"/>
		<path class="st1" d="M277.7,211.4c0,1,0.1,2.9,0.2,3.7h-3.2c-0.1-0.4-0.2-1.3-0.2-1.9c-0.7,1.3-2,2.2-4.2,2.2
			c-3.5,0-4.8-2.6-4.8-5c0-3.2,2.2-5.5,7-5.5c0.7,0,1.2,0,1.7,0V203c0-1.2-0.2-2.5-2.3-2.5c-2,0-2.3,1.2-2.4,2.5h-3.4
			c0.1-2.5,1.4-5.1,5.9-5.1c3.6,0,5.6,1.6,5.6,5V211.4z M274.4,207.4c-0.5,0-1-0.1-1.7-0.1c-2.8,0-3.6,1.2-3.6,2.7
			c0,1.3,0.7,2.5,2.3,2.5c2.4,0,3-1.7,3-4.6V207.4z"/>
		<path class="st1" d="M292.7,191.4v19c0,1.9,0,3.6,0,4.6h-3.4c-0.1-0.4-0.1-1.4-0.1-2c-0.6,1.4-1.7,2.3-4.1,2.3
			c-3.8,0-5.5-3.3-5.5-8.9c0-5.2,2.1-8.7,6.1-8.7c2.1,0,3.1,0.8,3.5,1.6v-7.9H292.7z M283.2,206.5c0,4.1,1,5.9,3,5.9
			c2.5,0,3.1-1.9,3.1-6c0-4.2-0.6-5.6-2.9-5.6C284.5,200.8,283.2,202.3,283.2,206.5z"/>
		<path class="st1" d="M307.9,206.4c0,5.8-2.2,9-6.7,9c-4.5,0-6.6-3.2-6.6-8.9c0-5.5,2.4-8.7,6.8-8.7
			C305.7,197.8,307.9,201,307.9,206.4z M298.2,206.4c0,3.9,1,6,3.1,6c2.1,0,3-2.1,3-6c0-3.8-0.9-5.7-3.1-5.7
			C299.2,200.7,298.2,202.7,298.2,206.4z"/>
		<path class="st1" d="M309.8,203.9c0-2.8,0-4.6,0-5.8h3.4c0,0.5,0.1,1.3,0.1,3c0.7-1.9,2.2-3.2,4.7-3.2v3.8c-3.1,0-4.6,1.3-4.6,4.6
			v8.8h-3.5V203.9z"/>
	</g>
</g>
<path class="st1" d="M342,185.9c-7.8-1.2-15.6-2.2-23.4-2.9c-7.9-0.7-15.7-1.2-23.6-1.7c-15.7-0.9-31.4-1.3-47.2-1.4
	c-7.9,0-15.7,0-23.6,0.1c-7.8,0.1-15.7,0.2-23.6,0.4c-15.8,0.4-31.5,1.4-47.2,2.8c-15.7,1.4-31.4,3.1-47,5.2
	c-15.6,2.1-31.2,4.7-46.6,7.7c-7.7,1.5-15.4,3.1-23.1,4.8c-2.9,0.6-5.7,1.3-8.6,1.9c-0.7,3.2-1.3,6.2-1.9,9c0.2,0,0.5-0.1,0.7-0.1
	c3.8-0.8,7.7-1.6,11.5-2.4c7.7-1.6,15.3-3,23-4.5c15.4-2.9,30.8-5.6,46.2-8c15.4-2.4,30.9-4.7,46.5-6.5c15.5-1.9,31.1-3.2,46.7-4
	c31.3-1.4,62.6-2.2,93.9-1.1c7.8,0.3,15.7,0.6,23.4,1.2c7.8,0.6,15.6,1.4,23.3,2.4c15.5,2,30.9,4.9,46.2,8.1l0.3-1.3
	C373.1,191.3,357.6,188.4,342,185.9z"/>
</svg>