<svg xmlns="http://www.w3.org/2000/svg" viewBox="0 0 45.11 45.11"><defs><style>.cls-1{fill:#fefefe;}.cls-2{fill:#262223;}.cls-3{fill:#8d8b8b;}</style></defs><g id="Layer_2" data-name="Layer 2"><g id="Layer_1-2" data-name="Layer 1"><path class="cls-1" d="M0,22.56q0-11,0-22C0,.13.05,0,.53,0q22,0,44,0c.49,0,.56.14.56.59q0,22,0,43.93c0,.45-.06.59-.56.59H.53C.06,45.11,0,45,0,44.56Q0,33.57,0,22.56Zm27.16-4.89.25,0c0,.33-.05.65-.05,1,0,3.24,0,6.48,0,9.72,0,.28.13.62-.39.63s-1-.22-1.2.12-.07.87-.08,1.32c0,.1,0,.2,0,.3-.11.64.08.87.79.84,1.73-.06,3.46,0,5.2,0,.62,0,1.48.22,1.81-.1s.08-1.28.15-1.94c0-.43-.08-.58-.52-.55C32.47,29,32,28.69,32,28c0-3.5,0-7,0-10.48,0-.52.25-1,.75-.95.94.07.93-.43.87-1.08a5.36,5.36,0,0,1,0-1.06c0-.43-.12-.54-.55-.54-2.41,0-4.82,0-7.24,0-.34,0-.53.07-.63.44-.34,1.33-.72,2.66-1.08,4l-1.6,5.83c-.09-.22-.14-.3-.17-.39-.82-3.1-1.65-6.19-2.47-9.29-.1-.35-.19-.59-.68-.59-2.46,0-4.93,0-7.39,0-.38,0-.54.08-.51.5a10.87,10.87,0,0,1,0,1.51c-.05.48.09.64.6.63.84,0,1.11.31,1.11,1.16,0,3.39,0,6.78,0,10.17,0,.59-.27,1.08-.75,1-1.16-.11-1,.6-1,1.28a3.86,3.86,0,0,1,0,.76c-.08.53.17.61.63.6,1.49,0,3,0,4.45,0,1.67,0,1.61,0,1.69-1.67,0-.8-.22-1-1-.91-.56.1-.77-.08-.76-.71,0-3.52,0-7,0-10.55,0,0,0-.16.17-.08.07.28.14.59.22.9,1.12,4.08,2.25,8.16,3.33,12.24.17.64.44.86,1.08.79a10.1,10.1,0,0,1,1.65,0c.43,0,.61-.11.73-.53.65-2.47,1.35-4.92,2-7.38C26.11,21.64,26.64,19.65,27.17,17.67Z"/><path class="cls-2" d="M27.17,17.67c-.53,2-1.06,4-1.6,5.95-.67,2.46-1.37,4.91-2,7.38-.12.42-.3.56-.73.53a10.1,10.1,0,0,0-1.65,0c-.64.07-.91-.15-1.08-.79C19,26.66,17.88,22.58,16.76,18.5c-.08-.31-.15-.62-.22-.9-.14-.08-.17,0-.17.08,0,3.52,0,7,0,10.55,0,.63.2.81.76.71.73-.12,1,.11,1,.91-.08,1.67,0,1.67-1.69,1.67-1.48,0-3,0-4.45,0-.46,0-.71-.07-.63-.6a3.86,3.86,0,0,0,0-.76c0-.68-.19-1.39,1-1.28.48.05.76-.44.75-1,0-3.39,0-6.78,0-10.17,0-.85-.27-1.16-1.11-1.16-.51,0-.65-.15-.6-.63a10.87,10.87,0,0,0,0-1.51c0-.42.13-.5.51-.5,2.46,0,4.93,0,7.39,0,.49,0,.58.24.68.59.82,3.1,1.65,6.19,2.47,9.29,0,.09.08.17.17.39l1.6-5.83c.36-1.33.74-2.66,1.08-4,.1-.37.29-.44.63-.44,2.42,0,4.83,0,7.24,0,.43,0,.59.11.55.54a5.36,5.36,0,0,0,0,1.06c.06.65.07,1.15-.87,1.08-.5,0-.75.43-.75.95,0,3.49,0,7,0,10.48,0,.69.45,1,1.1.93.44,0,.57.12.52.55-.07.66.28,1.53-.15,1.94s-1.19.1-1.81.1c-1.74,0-3.47,0-5.2,0-.71,0-.9-.2-.79-.84,0-.1,0-.2,0-.3,0-.45-.12-1,.08-1.32S26.56,29,27,29s.39-.35.39-.63c0-3.24,0-6.48,0-9.72,0-.33,0-.65.05-1,0-.11,0-.17-.13-.15S27.15,17.57,27.17,17.67Z"/><path class="cls-3" d="M27.17,17.67c0-.1,0-.18.12-.19s.17,0,.13.15Z"/></g></g></svg>