<svg xmlns="http://www.w3.org/2000/svg" xmlns:xlink="http://www.w3.org/1999/xlink" viewBox="0 0 44.55 44.55"><defs><style>.cls-1{fill:url(#linear-gradient);}.cls-2{fill:url(#linear-gradient-2);}.cls-3,.cls-8{fill:#baecfc;}.cls-3{fill-rule:evenodd;}.cls-4{fill:#fff;}.cls-5{fill:url(#linear-gradient-3);}.cls-6{fill:#eef8fb;}.cls-7{fill:url(#linear-gradient-4);}.cls-9{fill:url(#linear-gradient-5);}.cls-10{fill:url(#linear-gradient-6);}.cls-11{fill:url(#linear-gradient-7);}</style><linearGradient id="linear-gradient" x1="0.59" y1="22.27" x2="45.14" y2="22.27" gradientUnits="userSpaceOnUse"><stop offset="0" stop-color="#61cbf1"/><stop offset="1" stop-color="#00bbe2"/></linearGradient><linearGradient id="linear-gradient-2" x1="22.27" y1="44.6" x2="22.27" y2="16.54" gradientUnits="userSpaceOnUse"><stop offset="0" stop-color="#59b8de"/><stop offset="1" stop-color="#4fa7cd"/></linearGradient><linearGradient id="linear-gradient-3" x1="22.27" y1="18.27" x2="22.27" y2="36.15" gradientUnits="userSpaceOnUse"><stop offset="0" stop-color="#ace8fa"/><stop offset="0.99" stop-color="#6ad1f7"/></linearGradient><linearGradient id="linear-gradient-4" x1="61.09" y1="740.7" x2="61.25" y2="740.7" gradientTransform="matrix(0, -286.07, -286.07, 0, 211914.26, 17520.63)" gradientUnits="userSpaceOnUse"><stop offset="0.6" stop-color="#5bbbe1"/><stop offset="0.99" stop-color="#5bbbe1"/></linearGradient><linearGradient id="linear-gradient-5" x1="22.09" y1="8.66" x2="22.09" y2="18.23" gradientUnits="userSpaceOnUse"><stop offset="0" stop-color="#dcf5fd"/><stop offset="1" stop-color="#b9ebfb"/></linearGradient><linearGradient id="linear-gradient-6" x1="48.51" y1="731.09" x2="48.67" y2="731.09" gradientTransform="matrix(0, 38.78, 38.78, 0, -28339.27, -1872.31)" gradientUnits="userSpaceOnUse"><stop offset="0" stop-color="#f6fcff"/><stop offset="0.73" stop-color="#d1f2fc"/><stop offset="0.98" stop-color="#c8effc"/></linearGradient><linearGradient id="linear-gradient-7" x1="40.63" y1="724.81" x2="40.79" y2="724.81" gradientTransform="matrix(0, 22.15, 22.15, 0, -16037.34, -890.6)" gradientUnits="userSpaceOnUse"><stop offset="0" stop-color="#eef8fb"/><stop offset="0.08" stop-color="#ecf9fe"/><stop offset="0.11" stop-color="#eaf8fe" stop-opacity="0.96"/><stop offset="0.44" stop-color="#dbf2fa" stop-opacity="0.55"/><stop offset="0.71" stop-color="#d0edf7" stop-opacity="0.26"/><stop offset="0.9" stop-color="#caeaf5" stop-opacity="0.07"/><stop offset="1" stop-color="#c7e9f4" stop-opacity="0"/></linearGradient></defs><g id="Layer_2" data-name="Layer 2"><g id="Layer_1-2" data-name="Layer 1"><path class="cls-1" d="M44.55,7.84v0A8,8,0,0,0,37.79.05a8.3,8.3,0,0,0-.87,0H7.55L7,0A8,8,0,0,0,0,7.68C0,7.79,0,7.89,0,8V36.55a8,8,0,0,0,8,8H36.55a8,8,0,0,0,8-8V7.84Z"/><path class="cls-2" d="M2.52,15.85v19.5A6.67,6.67,0,0,0,9.2,42H35.35A6.68,6.68,0,0,0,42,35.35V15.92a64.31,64.31,0,0,1-6.83,1.39,6.57,6.57,0,0,1-5.54,8.52v0a6.6,6.6,0,0,1,5.84,6.56A6.49,6.49,0,0,1,29,38.91H19.11C13.09,38.91,9,34.26,9,28.29V17.22a64.44,64.44,0,0,1-6.52-1.37M0,7.68C0,7.79,0,7.89,0,8V36.55a8,8,0,0,0,8,8H36.55a8,8,0,0,0,8-8V15.2l-1,.31V35.9a7.65,7.65,0,0,1-7.63,7.63H8.65A7.65,7.65,0,0,1,1,35.9V15.43l-1-.31V8a2.44,2.44,0,0,1,0-.27"/><path class="cls-3" d="M2.52,9.19A6.67,6.67,0,0,1,9.2,2.51H35.35A6.68,6.68,0,0,1,42,9.19V35.35A6.68,6.68,0,0,1,35.35,42H9.2a6.67,6.67,0,0,1-6.68-6.68V9.19M1,8.65V35.9a7.65,7.65,0,0,0,7.63,7.63H35.9a7.65,7.65,0,0,0,7.63-7.63V8.65A7.65,7.65,0,0,0,35.9,1H8.65A7.65,7.65,0,0,0,1,8.65"/><path class="cls-4" d="M9,12.12a6.49,6.49,0,0,1,13,0v.69h7a6.49,6.49,0,0,1,6.48,6.48,6.57,6.57,0,0,1-5.85,6.54v0a6.6,6.6,0,0,1,5.84,6.56A6.49,6.49,0,0,1,29,38.91H19.11C13.09,38.91,9,34.26,9,28.29V12.12"/><path class="cls-5" d="M11.9,17.63V27.76a.81.81,0,0,1,0,.16c0,4.61,2.59,8,7.91,8.12H29a3.63,3.63,0,0,0,0-7.25H19.67c-.39,0-.52-.24-.52-.66V22.92H29a3.63,3.63,0,0,0,3.62-3.63,3.54,3.54,0,0,0-.37-1.59,86.94,86.94,0,0,1-9.88.55,88.23,88.23,0,0,1-10.5-.62"/><path class="cls-6" d="M36.92,0H7.55L7,0A8,8,0,0,0,0,7.68,8,8,0,0,1,8,0H36.55a8,8,0,0,1,8,7.84v0A8,8,0,0,0,37.79.05a8.3,8.3,0,0,0-.87,0"/><path class="cls-7" d="M35.35,2.51H9.2A6.67,6.67,0,0,0,2.52,9.19v6.66A64.44,64.44,0,0,0,9,17.22v-5.1a6.49,6.49,0,0,1,13,0v.69h7a6.49,6.49,0,0,1,6.17,4.5A64.31,64.31,0,0,0,42,15.92V9.19a6.68,6.68,0,0,0-6.68-6.68M36.55,0H8A8,8,0,0,0,0,7.68,2.44,2.44,0,0,0,0,8v7.17l1,.31V8.65A7.65,7.65,0,0,1,8.65,1H35.9a7.65,7.65,0,0,1,7.63,7.63v6.86l1-.31V7.84a8,8,0,0,0-8-7.84"/><path class="cls-8" d="M35.9,1H8.65A7.65,7.65,0,0,0,1,8.65v6.78q.73.23,1.5.42V9.19A6.67,6.67,0,0,1,9.2,2.51H35.35A6.68,6.68,0,0,1,42,9.19v6.73l1.5-.41V8.65A7.65,7.65,0,0,0,35.9,1"/><path class="cls-6" d="M15.52,5.64A6.48,6.48,0,0,0,9,12.12v5.1c.93.15,1.89.29,2.86.41V12.12a3.63,3.63,0,0,1,7.25,0v3.55H29a3.63,3.63,0,0,1,3.25,2c1-.11,2-.24,2.92-.39A6.49,6.49,0,0,0,29,12.81H22v-.69a6.49,6.49,0,0,0-6.49-6.48"/><path class="cls-9" d="M15.53,8.5a3.63,3.63,0,0,0-3.63,3.62v5.51a88.23,88.23,0,0,0,10.5.62,86.94,86.94,0,0,0,9.88-.55,3.63,3.63,0,0,0-3.25-2H19.15V12.12A3.63,3.63,0,0,0,15.53,8.5"/><path class="cls-10" d="M18.44,12.27a3,3,0,1,1-3-3A3,3,0,0,1,18.44,12.27Z"/><path class="cls-11" d="M15.42,10.11a3,3,0,0,1,3,2.59,3,3,0,0,0,0-.43,3,3,0,1,0-6,.43A3,3,0,0,1,15.42,10.11Z"/></g></g></svg>