<svg xmlns="http://www.w3.org/2000/svg" viewBox="0 0 189.47 51.78"><defs><style>.cls-1{fill:#7289da;}</style></defs><g id="Layer_2" data-name="Layer 2"><g id="Layer_1-2" data-name="Layer 1"><path class="cls-1" d="M27.65,21.73a2.88,2.88,0,1,0,2.67,2.87A2.75,2.75,0,0,0,27.65,21.73Zm-9.53,0a2.88,2.88,0,1,0,2.67,2.87A2.75,2.75,0,0,0,18.12,21.73Z"/><path class="cls-1" d="M40.34,0h-35A5.36,5.36,0,0,0,0,5.35v35A5.36,5.36,0,0,0,5.35,45.7H35l-1.38-4.78L36.92,44l3.16,2.9,5.64,4.88V5.35A5.39,5.39,0,0,0,40.34,0ZM30.26,33.82s-.94-1.13-1.72-2.09a8.33,8.33,0,0,0,4.73-3.08,15.09,15.09,0,0,1-3,1.54,19.38,19.38,0,0,1-3.78,1.12,18.23,18.23,0,0,1-6.77,0,19.72,19.72,0,0,1-3.83-1.12A15.3,15.3,0,0,1,14,29.27c-.08-.05-.16-.08-.23-.13s-.08-.05-.11-.05c-.47-.26-.73-.44-.73-.44a8.14,8.14,0,0,0,4.57,3.05c-.78,1-1.75,2.14-1.75,2.14-5.77-.18-8-3.94-8-3.94a34.46,34.46,0,0,1,3.76-15.09,12.91,12.91,0,0,1,7.31-2.72l.26.31a17.21,17.21,0,0,0-6.84,3.4,16.91,16.91,0,0,1,1.54-.73,20.59,20.59,0,0,1,5.92-1.65,3.44,3.44,0,0,1,.45-.05,21.94,21.94,0,0,1,5.27,0,21.58,21.58,0,0,1,7.86,2.48,17.09,17.09,0,0,0-6.5-3.29l.37-.42a12.87,12.87,0,0,1,7.31,2.72A34.46,34.46,0,0,1,38.23,29.9s-2.19,3.73-8,3.92ZM69.69,11.18H61v9.74l5.78,5.19V16.66h3.08c2,0,2.92.94,2.92,2.45v7.24c0,1.51-.91,2.53-2.92,2.53H61v5.51h8.67c4.65,0,9-2.3,9-7.62V19c0-5.43-4.34-7.8-9-7.8Zm45.44,15.59v-8c0-2.87,5.17-3.52,6.74-.65l4.77-1.93a8.59,8.59,0,0,0-8.14-5.33c-4.65,0-9.25,2.69-9.25,7.91v8c0,5.27,4.6,7.91,9.14,7.91a9.33,9.33,0,0,0,8.36-5.2l-5.12-2.35C120.38,30.34,115.13,29.56,115.13,26.77Zm-15.8-6.9c-1.8-.39-3-1-3.08-2.17.1-2.69,4.26-2.79,6.68-.2l3.84-3a9.51,9.51,0,0,0-7.91-3.7c-4.25,0-8.38,2.4-8.38,6.94s3.39,6.79,7.13,7.37c1.9.26,4,1,4,2.32C101.42,30,96.3,29.82,94,27l-3.71,3.47a10.16,10.16,0,0,0,7.89,4.21c4.25,0,9-2.46,9.16-6.95C107.58,22.06,103.46,20.63,99.33,19.87ZM81.84,34.36h5.85V11.18H81.84Zm98.62-23.18h-8.67v9.74l5.77,5.19V16.66h3.09c1.95,0,2.92.94,2.92,2.45v7.24c0,1.51-.91,2.53-2.92,2.53h-8.88v5.51h8.69c4.65,0,9-2.3,9-7.62V19C189.47,13.55,185.11,11.18,180.46,11.18Zm-42.53-.32c-4.81,0-9.59,2.61-9.59,8v7.91c0,5.3,4.81,8,9.64,8s9.58-2.66,9.58-8V18.83C147.56,13.5,142.73,10.86,137.93,10.86Zm3.76,15.88c0,1.67-1.88,2.53-3.74,2.53s-3.76-.81-3.76-2.53V18.83c0-1.7,1.83-2.61,3.66-2.61s3.84.81,3.84,2.61v7.91Zm26.87-7.91c-.14-5.43-3.84-7.63-8.62-7.63h-9.27V34.39h5.93V27h1L163,34.39h7.31l-6.32-8C166.81,25.54,168.56,23.11,168.56,18.83ZM160,22H156.6v-5.3H160A2.65,2.65,0,1,1,160,22Z"/></g></g></svg>